<?xml version="1.0" encoding="UTF-8"?>
<svg version="1.1" xmlns="http://www.w3.org/2000/svg" width="349" height="408">
<path d="M0 0 C115.17 0 230.34 0 349 0 C349 134.64 349 269.28 349 408 C233.83 408 118.66 408 0 408 C0 273.36 0 138.72 0 0 Z " fill="#131313" transform="translate(0,0)"/>
<path d="M0 0 C6.40094941 0.27040142 12.80053044 0.56255 19.19970703 0.87207031 C21.60047285 0.98174784 24.00041255 1.07013216 26.40234375 1.1484375 C28.21412109 1.22964844 28.21412109 1.22964844 30.0625 1.3125 C31.10535156 1.34988281 32.14820312 1.38726562 33.22265625 1.42578125 C36.86547636 2.17893815 38.5412676 3.2010371 41 6 C41.26953125 9.453125 41.26953125 9.453125 40.8125 13.25 C40.67457031 14.51328125 40.53664063 15.7765625 40.39453125 17.078125 C40.26433594 18.04234375 40.13414063 19.0065625 40 20 C39.34 20 38.68 20 38 20 C38 20.66 38 21.32 38 22 C39.98 22.495 39.98 22.495 42 23 C41.5801476 33.38582249 41.05172019 43.765754 40.1875 54.125 C40.10072998 55.41229004 40.10072998 55.41229004 40.01220703 56.72558594 C39.79296875 59.1328125 39.79296875 59.1328125 39 63 C36.95043945 64.24169922 36.95043945 64.24169922 35 65 C35 65.66 35 66.32 35 67 C35.70125 66.95359375 36.4025 66.9071875 37.125 66.859375 C43.05766757 66.63367569 47.19560064 66.98426394 52.34375 70.02734375 C54.15077706 71.16566346 54.15077706 71.16566346 57 72 C58.69514137 71.04906703 60.36368108 70.04892238 62 69 C62.66 69 63.32 69 64 69 C63.649375 68.29875 63.29875 67.5975 62.9375 66.875 C61.77889826 63.32195465 61.90674013 61.57131559 63 58 C63.86625 57.030625 64.7325 56.06125 65.625 55.0625 C66.800625 53.5465625 66.800625 53.5465625 68 52 C67.835 50.865625 67.67 49.73125 67.5 48.5625 C66.94082458 44.57837516 67.19670679 44.14126297 69.4375 41.0625 C70.283125 40.051875 71.12875 39.04125 72 38 C73.98 38.495 73.98 38.495 76 39 C75.979375 37.96875 75.95875 36.9375 75.9375 35.875 C76.32408195 33.28908018 76.78747589 32.21403495 78.6484375 30.33984375 C87.26859702 24.25594055 97.29398723 20.69224748 107.78515625 22.47265625 C118.34127235 24.6146628 130.67603389 27.16665113 137.6875 35.9375 C145.49984341 48.49852274 146.37715716 62.73705705 144 77 C139.71 77 135.42 77 131 77 C131.20625 79.0625 131.4125 81.125 131.625 83.25 C132.33928571 90.39285714 132.33928571 90.39285714 130 94 C130.495 93.835 130.99 93.67 131.5 93.5 C136.1522973 92.56954054 140.64265087 92.78263092 145.29296875 93.52734375 C149.14876643 94.01896811 152.62589176 93.95564592 156.5 93.6875 C157.7478125 93.60886719 158.995625 93.53023438 160.28125 93.44921875 C164.03061707 92.99630151 167.37673783 92.0370171 171 91 C173.87109375 90.8046875 173.87109375 90.8046875 176.4375 90.875 C177.30246094 90.89304687 178.16742188 90.91109375 179.05859375 90.9296875 C179.69925781 90.95289062 180.33992187 90.97609375 181 91 C181 90.34 181 89.68 181 89 C184.63 88.67 188.26 88.34 192 88 C191.34 84.7 190.68 81.4 190 78 C193.465 77.505 193.465 77.505 197 77 C197.33 76.01 197.66 75.02 198 74 C206.25 74.99 214.5 75.98 223 77 C223 77.99 223 78.98 223 80 C223.70640625 79.98839844 224.4128125 79.97679688 225.140625 79.96484375 C232.87188358 79.8968553 240.52874708 80.20453878 248.24511719 80.64648438 C254.92642737 81.0057218 261.57591361 81.05960955 268.2644043 80.875 C272.02714578 80.81232391 274.80977821 80.88149334 278 83 C278.91416053 91.87074288 278.91416053 91.87074288 275.875 95.625 C268.8516616 99.17837549 259.03033353 97.22216669 251.4921875 96.2265625 C244.66648564 95.60604415 236.5787665 94.91202877 230 97 C230.33 98.65 230.66 100.3 231 102 C229.515 102.495 229.515 102.495 228 103 C228 103.66 228 104.32 228 105 C223.71 105.33 219.42 105.66 215 106 C215.309375 107.69125 215.61875 109.3825 215.9375 111.125 C216.01254088 115.97379524 214.98208364 118.40729552 211.73046875 121.84375 C208.48696238 124.94416633 205.092549 127.85736781 201.60400391 130.67822266 C198.73911614 132.90482865 198.73911614 132.90482865 197.7265625 136.2421875 C197.67628906 137.54542969 197.67628906 137.54542969 197.625 138.875 C197.26375878 143.75175644 197.26375878 143.75175644 194.875 146 C193.946875 146.99 193.946875 146.99 193 148 C193.18188933 150.24952288 193.18188933 150.24952288 193.6875 152.75 C194.3155486 157.38945578 194.3155486 157.38945578 192.98046875 159.97265625 C191.09770806 162.13027252 189.10358633 164.05485687 187 166 C184.77418375 168.10728586 182.56998387 170.2356401 180.375 172.375 C179.7982251 172.93082764 179.2214502 173.48665527 178.62719727 174.05932617 C175.30389597 177.36145074 173.10731589 180.22480621 171.3125 184.625 C170.07364686 187.56965863 169.55891717 188.70533279 166.703125 190.2109375 C164.14506657 190.97532774 161.62289873 191.51192014 159 192 C157.4840625 192.5878125 157.4840625 192.5878125 155.9375 193.1875 C151.20022077 194.49781128 146.55359827 195.33253243 142.03125 192.97265625 C139.92063999 191.41132384 137.96762385 189.73824694 136 188 C134.27498334 186.57828297 132.54549687 185.16197863 130.8125 183.75 C129.88050781 182.98429688 128.94851562 182.21859375 127.98828125 181.4296875 C114.38994938 168.84235574 114.38994938 168.84235574 98.54296875 161.85546875 C94.54164157 163.6563733 92.71804023 166.93260021 90.3125 170.5 C89.35374914 171.88783325 88.39166473 173.27337131 87.42578125 174.65625 C87.00723877 175.27306641 86.58869629 175.88988281 86.1574707 176.52539062 C85 178 85 178 83 179 C81.00039988 179.039992 78.99952758 179.04346799 77 179 C76.690625 179.61875 76.38125 180.2375 76.0625 180.875 C75.375 182.25 74.6875 183.625 74 185 C75.65 185.66 77.3 186.32 79 187 C79.18451025 199.66970387 79.18451025 199.66970387 78 205 C78.87221191 205.12673096 79.74442383 205.25346191 80.64306641 205.3840332 C83.82200804 205.96734009 86.66368797 206.79203875 89.7109375 207.85546875 C90.78424316 208.22808838 91.85754883 208.60070801 92.96337891 208.98461914 C94.08921387 209.38156982 95.21504883 209.77852051 96.375 210.1875 C97.52790527 210.59025146 98.68081055 210.99300293 99.86865234 211.40795898 C108.62680531 214.48109183 117.3388102 217.66374109 126 221 C126 221.66 126 222.32 126 223 C127.72476563 223.06380859 127.72476563 223.06380859 129.484375 223.12890625 C134.86396257 223.81140889 138.15452463 226.56748718 142.25 229.9375 C142.98436279 230.52724609 143.71872559 231.11699219 144.4753418 231.72460938 C145.9582848 232.91833565 147.43648408 234.11798108 148.90966797 235.32373047 C150.7790245 236.82279633 152.67897611 238.23750156 154.62890625 239.62890625 C162.45419541 245.4570664 165.34983291 250.42045857 167 260 C167.32871094 261.85238281 167.32871094 261.85238281 167.6640625 263.7421875 C168.23916982 267.49188722 168.6442118 271.22379338 169 275 C169.1546875 276.10085938 169.309375 277.20171875 169.46875 278.3359375 C169.75799231 281.5256374 169.8310361 283.90291463 169 287 C166.09590373 290.40556261 162.80934499 292.69214866 159 295 C158.25105469 295.54527344 157.50210938 296.09054687 156.73046875 296.65234375 C150.31086524 299.82081759 142.68753909 299.07934403 135.6875 298.9375 C120.33631777 298.66899032 120.33631777 298.66899032 107.15625 305.6484375 C106.6096875 306.21820313 106.063125 306.78796875 105.5 307.375 C104.89929688 307.99503906 104.29859375 308.61507813 103.6796875 309.25390625 C103.12539062 309.83011719 102.57109375 310.40632813 102 311 C101.21625 311.763125 100.4325 312.52625 99.625 313.3125 C97.33742386 315.65454223 95.16983829 318.05005531 93 320.5 C88.63022677 325.40033592 84.03275253 330.03130513 79.34179688 334.62109375 C76.93785882 336.98733434 74.87820842 339.18268737 73 342 C71.109375 342.0546875 71.109375 342.0546875 68.75 341.875 C60.87552144 342.48160954 55.40982975 348.36738377 50.43554688 354.04833984 C47.78392212 357.65328683 46.6612081 361.63610087 45.4074707 365.88134766 C43.47723801 371.8501434 40.21217025 375.90140544 35.9375 380.4375 C35.33486328 381.08251465 34.73222656 381.7275293 34.11132812 382.39208984 C31.7049006 384.82571238 29.74039995 386.69721663 26.5546875 388 C22.99279642 388 19.64457456 387.33992825 16.1875 386.5625 C15.14819336 386.34110352 15.14819336 386.34110352 14.08789062 386.11523438 C12.39003185 385.75224388 10.69473237 385.37731777 9 385 C9.48258671 371.52085402 11.01808538 358.33741285 13 345 C10.03 345 7.06 345 4 345 C3.57755106 341.55000031 3.37827043 338.99399975 5.265625 335.9765625 C6.77188571 334.18513593 8.21807686 332.51878942 10 331 C10.66 331 11.32 331 12 331 C12.99013091 328.02960727 13.30429201 325.30082596 13.59570312 322.19750977 C15.27145567 304.72854433 15.27145567 304.72854433 21 299 C21.99 299 22.98 299 24 299 C24 298.34 24 297.68 24 297 C22.68 297 21.36 297 20 297 C21.32 287.1 22.64 277.2 24 267 C21.69 266.67 19.38 266.34 17 266 C14.34765341 265.38873473 11.77881456 264.58025203 9.1875 263.75 C8.52041016 263.55792969 7.85332031 263.36585938 7.16601562 263.16796875 C5.23046875 262.546875 5.23046875 262.546875 2 261 C0.70703125 258.38671875 0.70703125 258.38671875 0 256 C-1.97395523 255.25976679 -3.98271862 254.61238899 -6 254 C-10.85499755 251.99991298 -14.90704732 249.95681103 -17.52929688 245.26196289 C-18.70026975 242.03493819 -19.63947227 238.82302005 -20.5 235.5 C-20.8196875 234.38496094 -21.139375 233.26992187 -21.46875 232.12109375 C-22.06236194 230.04592535 -22.64052716 227.96622297 -23.19726562 225.88085938 C-23.46216797 224.93017578 -23.72707031 223.97949219 -24 223 C-24.45149414 221.36514648 -24.45149414 221.36514648 -24.91210938 219.69726562 C-25.27111328 218.80716797 -25.63011719 217.91707031 -26 217 C-26.99 216.67 -27.98 216.34 -29 216 C-29.01417969 215.16855469 -29.02835938 214.33710938 -29.04296875 213.48046875 C-29.09066406 212.39378906 -29.13835938 211.30710938 -29.1875 210.1875 C-29.22230469 209.10855469 -29.25710937 208.02960938 -29.29296875 206.91796875 C-29.7222154 203.7836556 -29.7222154 203.7836556 -32.55078125 202.11328125 C-33.35902344 201.74589844 -34.16726562 201.37851563 -35 201 C-32.61380816 190.09169443 -29.7055533 179.41474474 -26.48901367 168.72192383 C-24.90689554 163.38612803 -23.59348036 158.19866113 -22.75 152.6875 C-19.46997455 134.78736112 -9.89692075 117.43024521 -2.44140625 100.95751953 C-2.00441406 99.98411621 -1.56742188 99.01071289 -1.1171875 98.0078125 C-0.53880127 96.73381592 -0.53880127 96.73381592 0.05126953 95.43408203 C1.02672189 92.93144177 1.66771863 90.66575854 2 88 C0.83926389 85.47572261 0.83926389 85.47572261 -0.9375 83.1875 C-1.50339844 82.39730469 -2.06929687 81.60710937 -2.65234375 80.79296875 C-3.09707031 80.20128906 -3.54179688 79.60960938 -4 79 C1.61356583 68.33229587 1.61356583 68.33229587 4.75 64.4375 C7.7907502 60.34079796 8.42024625 55.98130527 9 51 C9.11859375 50.20980469 9.2371875 49.41960938 9.359375 48.60546875 C9.5731305 46.19249805 9.61179355 44.34893 9 42 C7.43360119 40.38361793 7.43360119 40.38361793 5.5 38.9375 C2.37954686 36.3120585 2.02333931 35.2149338 1.5703125 31.04296875 C1.55216706 28.13742987 1.6846473 25.25171405 1.8515625 22.3515625 C1.90054688 21.24554687 1.94953125 20.13953125 2 19 C1.67 18.67 1.34 18.34 1 18 C0.84417697 16.65984779 0.74955858 15.31241097 0.68359375 13.96484375 C0.64169922 13.15595703 0.59980469 12.34707031 0.55664062 11.51367188 C0.51732422 10.66353516 0.47800781 9.81339844 0.4375 8.9375 C0.39431641 8.08349609 0.35113281 7.22949219 0.30664062 6.34960938 C0.20023298 4.23327963 0.09958269 2.11666187 0 0 Z " fill="#FDFDFD" transform="translate(42,9)"/>
<path d="M0 0 C3.3 0 6.6 0 10 0 C9.0625 2.9375 9.0625 2.9375 7 6 C4.62887029 6.53415559 2.48659677 6.62548371 0.05859375 6.6015625 C-0.62074219 6.73304688 -1.30007812 6.86453125 -2 7 C-3.18804738 8.9177502 -3.18804738 8.9177502 -4 11 C-6.125 12.25 -6.125 12.25 -8 13 C-8 13.66 -8 14.32 -8 15 C-8.75152344 15.42667969 -9.50304687 15.85335937 -10.27734375 16.29296875 C-13.4500196 18.28215002 -14.65658717 20.11534228 -16.5625 23.3125 C-17.15289062 24.28445312 -17.74328125 25.25640625 -18.3515625 26.2578125 C-19.16753906 27.61519531 -19.16753906 27.61519531 -20 29 C-21.31099841 31.01633089 -22.65348698 33.00716073 -24 35 C-26 34 -28 33 -30 32 C-30 31.34 -30 30.68 -30 30 C-30.556875 29.773125 -31.11375 29.54625 -31.6875 29.3125 C-34.66159588 27.62449964 -36.72008865 25.53323483 -39 23 C-39 22.34 -39 21.68 -39 21 C-37.94872925 20.77449463 -37.94872925 20.77449463 -36.8762207 20.54443359 C-33.68253897 19.84517982 -30.49801142 19.11054026 -27.3125 18.375 C-26.20970703 18.13910156 -25.10691406 17.90320313 -23.97070312 17.66015625 C-17.15442604 16.05390364 -13.90888011 14.82942815 -10 9 C-8.4592774 7.6978409 -6.87813831 6.4410542 -5.25 5.25 C-2.10832803 3.06253213 -2.10832803 3.06253213 0 0 Z " fill="#131313" transform="translate(214,127)"/>
<path d="M0 0 C2.875 0.1875 2.875 0.1875 6 1 C7.67282031 3.88941691 8 5.6591357 8 9 C3.48309007 11.95336419 3.48309007 11.95336419 1 13 C-1.88071712 12.2214278 -2.88767245 11.11232755 -5 9 C-5.33 8.01 -5.66 7.02 -6 6 C-4.35 5.67 -2.7 5.34 -1 5 C-1.33 5.99 -1.66 6.98 -2 8 C-0.68 8.33 0.64 8.66 2 9 C2 8.34 2 7.68 2 7 C1.34 6.67 0.68 6.34 0 6 C0.66 6 1.32 6 2 6 C2 5.01 2 4.02 2 3 C1.01 3 0.02 3 -1 3 C-0.67 2.01 -0.34 1.02 0 0 Z " fill="#161616" transform="translate(98,69)"/>
<path d="M0 0 C4.05281712 1.22527029 7.44360764 2.69880494 11 5 C10.67 6.32 10.34 7.64 10 9 C9.34 9 8.68 9 8 9 C8 9.66 8 10.32 8 11 C4.37 11.33 0.74 11.66 -3 12 C-2.67 10.68 -2.34 9.36 -2 8 C-0.35 7.67 1.3 7.34 3 7 C2.65213292 5.02463255 2.65213292 5.02463255 2 3 C1.34 2.67 0.68 2.34 0 2 C0 1.34 0 0.68 0 0 Z " fill="#C5C5C5" transform="translate(262,103)"/>
<path d="M0 0 C0.66 0 1.32 0 2 0 C2.33 0.66 2.66 1.32 3 2 C5.97 1.34 8.94 0.68 12 0 C12 0.66 12 1.32 12 2 C13.9600281 3.63676257 13.9600281 3.63676257 16 5 C10.03325384 6.32594359 4.07416385 6.0884587 -2 6 C-1.34 4.02 -0.68 2.04 0 0 Z " fill="#171717" transform="translate(174,97)"/>
<path d="M0 0 C0 0.99 0 1.98 0 3 C-1.98 3.33 -3.96 3.66 -6 4 C-6 4.66 -6 5.32 -6 6 C-6.99 6.33 -7.98 6.66 -9 7 C-9.33 7.99 -9.66 8.98 -10 10 C-11.70884005 8.37660195 -13.37446717 6.70680947 -15 5 C-15 4.34 -15 3.68 -15 3 C-13.25183142 2.49363393 -11.50137737 1.99515381 -9.75 1.5 C-8.77546875 1.2215625 -7.8009375 0.943125 -6.796875 0.65625 C-4 0 -4 0 0 0 Z " fill="#212121" transform="translate(190,145)"/>
<path d="M0 0 C1.65 0 3.3 0 5 0 C5.625 2.875 5.625 2.875 6 6 C5.34 6.66 4.68 7.32 4 8 C3.67 7.67 3.34 7.34 3 7 C2.67 7.99 2.34 8.98 2 10 C1.54625 9.525625 1.0925 9.05125 0.625 8.5625 C-0.93258204 6.90972192 -0.93258204 6.90972192 -3 6 C-2 4 -1 2 0 0 Z M6 3 C6.66 3 7.32 3 8 3 C7.67 3.99 7.34 4.98 7 6 C6.67 5.01 6.34 4.02 6 3 Z " fill="#191919" transform="translate(119,188)"/>
<path d="M0 0 C6.81598387 -0.33278764 11.92122066 -0.24201565 18 3 C17.67 3.99 17.34 4.98 17 6 C15.02 6 13.04 6 11 6 C11 5.01 11 4.02 11 3 C10.06027344 3.05220703 10.06027344 3.05220703 9.1015625 3.10546875 C8.28429687 3.13253906 7.46703125 3.15960938 6.625 3.1875 C5.81289063 3.22230469 5.00078125 3.25710937 4.1640625 3.29296875 C3.44992187 3.19628906 2.73578125 3.09960938 2 3 C1.34 2.01 0.68 1.02 0 0 Z " fill="#1F1F1F" transform="translate(254,83)"/>
<path d="M0 0 C0.69738281 0.00902344 1.39476562 0.01804687 2.11328125 0.02734375 C3.82566958 0.05080112 5.53788004 0.08666896 7.25 0.125 C7.25 0.455 7.25 0.785 7.25 1.125 C6.09371094 1.21587891 6.09371094 1.21587891 4.9140625 1.30859375 C3.40972656 1.43427734 3.40972656 1.43427734 1.875 1.5625 C0.37839844 1.68431641 0.37839844 1.68431641 -1.1484375 1.80859375 C-3.72927613 1.97465626 -3.72927613 1.97465626 -5.75 3.125 C-5.42 4.775 -5.09 6.425 -4.75 8.125 C-8.215 6.145 -8.215 6.145 -11.75 4.125 C-11.75 3.465 -11.75 2.805 -11.75 2.125 C-8.00764681 -0.32489101 -4.30774581 -0.10586143 0 0 Z " fill="#232323" transform="translate(283.75,103.875)"/>
<path d="M0 0 C2.97 0 5.94 0 9 0 C8.01 1.98 7.02 3.96 6 6 C3.36 6 0.72 6 -2 6 C-1.67 5.34 -1.34 4.68 -1 4 C-0.67 2.68 -0.34 1.36 0 0 Z " fill="#101010" transform="translate(215,127)"/>
<path d="M0 0 C0.5775 0.763125 1.155 1.52625 1.75 2.3125 C3.71703093 4.66200917 5.48476744 6.29323505 8 8 C7.67 8.99 7.34 9.98 7 11 C6.236875 10.484375 5.47375 9.96875 4.6875 9.4375 C3.800625 8.963125 2.91375 8.48875 2 8 C1.01 8.33 0.02 8.66 -1 9 C-1 8.34 -1 7.68 -1 7 C-1.66 7 -2.32 7 -3 7 C-3 6.34 -3 5.68 -3 5 C-2.01 5 -1.02 5 0 5 C0 3.35 0 1.7 0 0 Z " fill="#191919" transform="translate(4,205)"/>
<path d="M0 0 C0.99 0.33 1.98 0.66 3 1 C2.67 1.66 2.34 2.32 2 3 C-0.0625 3.625 -0.0625 3.625 -2 4 C-2.33 5.32 -2.66 6.64 -3 8 C-5.31 8.33 -7.62 8.66 -10 9 C-9.09827532 7.82174642 -8.17798498 6.65768423 -7.25 5.5 C-6.73953125 4.8503125 -6.2290625 4.200625 -5.703125 3.53125 C-4 2 -4 2 0 2 C0 1.34 0 0.68 0 0 Z " fill="#1C1C1C" transform="translate(234,171)"/>
<path d="M0 0 C0.66 0 1.32 0 2 0 C3.18956883 4.15226856 2.78960563 6.38725993 1.0625 10.3125 C0.68222656 11.19550781 0.30195312 12.07851562 -0.08984375 12.98828125 C-0.39019531 13.65214844 -0.69054688 14.31601563 -1 15 C-1.66 15 -2.32 15 -3 15 C-2.88601335 13.37419034 -2.75844341 11.74932843 -2.625 10.125 C-2.55539063 9.22007813 -2.48578125 8.31515625 -2.4140625 7.3828125 C-2 5 -2 5 0 3 C0 2.01 0 1.02 0 0 Z " fill="#1F1F1F" transform="translate(36,108)"/>
<path d="M0 0 C2.05078125 0.03255208 4.1015625 0.06510417 6.15234375 0.09765625 C6.15234375 0.75765625 6.15234375 1.41765625 6.15234375 2.09765625 C5.55421875 2.34515625 4.95609375 2.59265625 4.33984375 2.84765625 C1.86586854 4.26135637 0.7186412 5.74821008 -0.84765625 8.09765625 C-1.50765625 5.78765625 -2.16765625 3.47765625 -2.84765625 1.09765625 C-1.84765625 0.09765625 -1.84765625 0.09765625 0 0 Z " fill="#1F1F1F" transform="translate(59.84765625,305.90234375)"/>
<path d="M0 0 C0.66 0.33 1.32 0.66 2 1 C1.3125 2.9375 1.3125 2.9375 0 5 C-4.39524315 6.59827024 -9.37416158 6.09070271 -14 6 C-12.32663364 3.98227529 -11.41856841 3.08431057 -8.80859375 2.55859375 C-8.02613281 2.51863281 -7.24367187 2.47867187 -6.4375 2.4375 C-2.77798662 2.33031056 -2.77798662 2.33031056 0 0 Z " fill="#282828" transform="translate(198,304)"/>
<path d="M0 0 C0.66 0 1.32 0 2 0 C2 0.66 2 1.32 2 2 C2.99 2 3.98 2 5 2 C5.33 3.65 5.66 5.3 6 7 C5.01 7.66 4.02 8.32 3 9 C0 3.375 0 3.375 0 0 Z " fill="#1D1D1D" transform="translate(105,54)"/>
<path d="M0 0 C2.375 0.6875 2.375 0.6875 5 2 C6.3125 4.625 6.3125 4.625 7 7 C5.35 7.33 3.7 7.66 2 8 C1.67 6.68 1.34 5.36 1 4 C0.34 4 -0.32 4 -1 4 C-0.67 2.68 -0.34 1.36 0 0 Z " fill="#222222" transform="translate(37,263)"/>
<path d="M0 0 C2.475 0.99 2.475 0.99 5 2 C5 2.66 5 3.32 5 4 C5.66 4.33 6.32 4.66 7 5 C6.67 5.99 6.34 6.98 6 8 C4.1875 7.875 4.1875 7.875 2 7 C0.25 3.9375 0.25 3.9375 -1 1 C-0.67 0.67 -0.34 0.34 0 0 Z " fill="#1B1B1B" transform="translate(192,241)"/>
<path d="M0 0 C1.32 0 2.64 0 4 0 C2.44499019 3.81684226 -0.03595495 6.19195732 -3 9 C-2.5020163 5.26512223 -2.12508244 3.18762365 0 0 Z " fill="#232323" transform="translate(56,80)"/>
<path d="M0 0 C1.65 1.32 3.3 2.64 5 4 C4.34 4 3.68 4 3 4 C2.67 4.66 2.34 5.32 2 6 C-1.63 5.67 -5.26 5.34 -9 5 C-9 4.34 -9 3.68 -9 3 C-7.88625 3.0928125 -7.88625 3.0928125 -6.75 3.1875 C-3.54616994 2.96905704 -2.35968744 2.09749995 0 0 Z " fill="#2B2B2B" transform="translate(86,71)"/>
<path d="M0 0 C2.97 0.33 5.94 0.66 9 1 C9 1.66 9 2.32 9 3 C9.66 3 10.32 3 11 3 C11 3.66 11 4.32 11 5 C7.37 4.01 3.74 3.02 0 2 C0 1.34 0 0.68 0 0 Z " fill="#222222" transform="translate(131,216)"/>
<path d="M0 0 C3.82097239 0.53069061 6.06171403 1.49701566 9 4 C5.11757759 5.07845067 3.4883646 4.92461495 0 3 C-0.99 3.495 -0.99 3.495 -2 4 C-1.34 2.68 -0.68 1.36 0 0 Z " fill="#272727" transform="translate(139,170)"/>
<path d="M0 0 C2.31 0 4.62 0 7 0 C7 0.66 7 1.32 7 2 C7.66 2.33 8.32 2.66 9 3 C5.7 3.33 2.4 3.66 -1 4 C-0.67 2.68 -0.34 1.36 0 0 Z " fill="#989898" transform="translate(260,111)"/>
<path d="M0 0 C1.37195574 1.29355827 2.71182656 2.62298702 4 4 C-1.41538462 5.23076923 -1.41538462 5.23076923 -4.375 4.0625 C-4.91125 3.711875 -5.4475 3.36125 -6 3 C-6 2.01 -6 1.02 -6 0 C-3 -1 -3 -1 0 0 Z " fill="#212121" transform="translate(186,98)"/>
<path d="M0 0 C0.99 0.33 1.98 0.66 3 1 C3.6875 3.8125 3.6875 3.8125 4 7 C2.6875 8.875 2.6875 8.875 1 10 C0.34 10 -0.32 10 -1 10 C-0.67 6.7 -0.34 3.4 0 0 Z " fill="#191919" transform="translate(188,74)"/>
<path d="M0 0 C0 1.65 0 3.3 0 5 C-2.64 5.33 -5.28 5.66 -8 6 C-3.375 0 -3.375 0 0 0 Z " fill="#1E1E1E" transform="translate(79,390)"/>
<path d="M0 0 C0.66 1.32 1.32 2.64 2 4 C2.94875 3.95875 3.8975 3.9175 4.875 3.875 C8 4 8 4 10 6 C7 7 7 7 4 6 C3.67 6.66 3.34 7.32 3 8 C2.34 8 1.68 8 1 8 C0.67 8.66 0.34 9.32 0 10 C0 9.01 0 8.02 0 7 C0.66 7 1.32 7 2 7 C2 6.34 2 5.68 2 5 C1.34 5 0.68 5 0 5 C0 3.35 0 1.7 0 0 Z " fill="#080808" transform="translate(44,350)"/>
<path d="M0 0 C0.66 0.33 1.32 0.66 2 1 C2 1.99 2 2.98 2 4 C3.65 4.33 5.3 4.66 7 5 C6.01 5.99 5.02 6.98 4 8 C1.53199953 6.84826645 -0.04783565 5.95216435 -2 4 C-2.33 3.01 -2.66 2.02 -3 1 C-2.01 0.67 -1.02 0.34 0 0 Z " fill="#232323" transform="translate(95,74)"/>
<path d="M0 0 C0.99 0 1.98 0 3 0 C3 2.64 3 5.28 3 8 C2.01 8 1.02 8 0 8 C0 6.68 0 5.36 0 4 C-0.66 4 -1.32 4 -2 4 C-1.33333333 2.66666667 -0.66666667 1.33333333 0 0 Z " fill="#202020" transform="translate(52,354)"/>
<path d="M0 0 C1.32 0.33 2.64 0.66 4 1 C1.33333333 3.66666667 -1.33333333 6.33333333 -4 9 C-4.66 8.34 -5.32 7.68 -6 7 C-4.02 4.69 -2.04 2.38 0 0 Z " fill="#E8E8E8" transform="translate(52,340)"/>
<path d="M0 0 C-1 2 -2 4 -3 6 C-2.34 6.33 -1.68 6.66 -1 7 C-2.32 7.33 -3.64 7.66 -5 8 C-5.33 5.69 -5.66 3.38 -6 1 C-3 0 -3 0 0 0 Z " fill="#E6E6E6" transform="translate(119,188)"/>
<path d="M0 0 C3.19902639 -0.08886184 5.92677456 0.08941469 9 1 C8.67 2.32 8.34 3.64 8 5 C6.35 4.67 4.7 4.34 3 4 C3 3.34 3 2.68 3 2 C2.01 1.67 1.02 1.34 0 1 C0 0.67 0 0.34 0 0 Z " fill="#232323" transform="translate(181,155)"/>
<path d="M0 0 C0.66 0 1.32 0 2 0 C2 0.66 2 1.32 2 2 C2.99 2.33 3.98 2.66 5 3 C4.67 3.66 4.34 4.32 4 5 C3.34 5 2.68 5 2 5 C1.67 5.99 1.34 6.98 1 8 C-0.42944945 5.64561267 -1.08661261 4.51967567 -0.625 1.75 C-0.41875 1.1725 -0.2125 0.595 0 0 Z " fill="#EAEAEA" transform="translate(202,131)"/>
<path d="M0 0 C3.73639216 1.24546405 4.18756513 2.63404953 6 6 C5.34 6.66 4.68 7.32 4 8 C2.68 6.68 1.36 5.36 0 4 C-0.99 4.495 -0.99 4.495 -2 5 C-1.34 3.35 -0.68 1.7 0 0 Z " fill="#1E1E1E" transform="translate(37,89)"/>
<path d="M0 0 C0.66 0.33 1.32 0.66 2 1 C4.09821215 0.60061233 4.09821215 0.60061233 6 0 C5.67 1.65 5.34 3.3 5 5 C3.35 5 1.7 5 0 5 C-0.5625 3.0625 -0.5625 3.0625 -1 1 C-0.67 0.67 -0.34 0.34 0 0 Z " fill="#1A1A1A" transform="translate(233,80)"/>
<path d="M0 0 C0.99 0.99 1.98 1.98 3 3 C1.68 4.32 0.36 5.64 -1 7 C-1.66 5.35 -2.32 3.7 -3 2 C-2.01 1.34 -1.02 0.68 0 0 Z " fill="#F3F3F3" transform="translate(220,177)"/>
<path d="M0 0 C0.33 0 0.66 0 1 0 C1 2.97 1 5.94 1 9 C-0.32 9.33 -1.64 9.66 -3 10 C-2.39009109 6.44219804 -1.4216319 3.3171411 0 0 Z " fill="#E0E0E0" transform="translate(30,132)"/>
<path d="M0 0 C0.33 0 0.66 0 1 0 C1.12375 0.94875 1.2475 1.8975 1.375 2.875 C1.71687177 6.08667191 1.71687177 6.08667191 4 8 C1.69 8 -0.62 8 -3 8 C-1.125 1.125 -1.125 1.125 0 0 Z " fill="#090909" transform="translate(82,67)"/>
<path d="M0 0 C2.31 0 4.62 0 7 0 C6.67 1.32 6.34 2.64 6 4 C3.69 3.67 1.38 3.34 -1 3 C-0.67 2.01 -0.34 1.02 0 0 Z " fill="#EFEFEF" transform="translate(62,393)"/>
<path d="M0 0 C0.66 0.33 1.32 0.66 2 1 C2.625 3.0625 2.625 3.0625 3 5 C-2.75 4.25 -2.75 4.25 -5 2 C-2.625 0.9375 -2.625 0.9375 0 0 Z " fill="#191919" transform="translate(57,274)"/>
<path d="M0 0 C0.66 0.33 1.32 0.66 2 1 C1.34 2.98 0.68 4.96 0 7 C-1.32 7 -2.64 7 -4 7 C-2.92598892 4.08482708 -2.22189824 2.22189824 0 0 Z " fill="#DBDBDB" transform="translate(198,149)"/>
<path d="M0 0 C2.96175123 0.61277612 4.38058783 1.25372522 7 3 C6.67 3.66 6.34 4.32 6 5 C4.02 5 2.04 5 0 5 C0 3.35 0 1.7 0 0 Z " fill="#3C3C3C" transform="translate(265,84)"/>
<path d="M0 0 C2.97 0 5.94 0 9 0 C7.02 0.99 7.02 0.99 5 2 C5.33 2.66 5.66 3.32 6 4 C5.34 4.66 4.68 5.32 4 6 C1.7522025 3.94766315 0.9977758 2.99332739 0 0 Z " fill="#E3E3E3" transform="translate(42,9)"/>
<path d="M0 0 C-0.33 0.66 -0.66 1.32 -1 2 C-3.875 2.75 -3.875 2.75 -7 3 C-7.99 2.34 -8.98 1.68 -10 1 C-3.375 -1.125 -3.375 -1.125 0 0 Z " fill="#1E1E1E" transform="translate(214,99)"/>
<path d="M0 0 C2.31 0 4.62 0 7 0 C7 1.65 7 3.3 7 5 C4.11562221 3.70700306 2.12780579 2.34058637 0 0 Z " fill="#2D2D2D" transform="translate(176,233)"/>
<path d="M0 0 C0.33 1.32 0.66 2.64 1 4 C0.360625 4.28875 -0.27875 4.5775 -0.9375 4.875 C-3.15206079 5.82823451 -3.15206079 5.82823451 -4 8 C-4 4 -4 4 -2 1.75 C-1.01 0.88375 -1.01 0.88375 0 0 Z " fill="#272727" transform="translate(220,183)"/>
<path d="M0 0 C0.99 0.33 1.98 0.66 3 1 C1.35 2.98 -0.3 4.96 -2 7 C-2.66 6.67 -3.32 6.34 -4 6 C-4 4 -4 4 -2 1.875 C-1.34 1.25625 -0.68 0.6375 0 0 Z " fill="#E7E7E7" transform="translate(242,136)"/>
<path d="M0 0 C0.598125 0.350625 1.19625 0.70125 1.8125 1.0625 C0.8225 1.0625 -0.1675 1.0625 -1.1875 1.0625 C-1.1875 1.7225 -1.1875 2.3825 -1.1875 3.0625 C-0.5275 3.3925 0.1325 3.7225 0.8125 4.0625 C-0.8375 4.0625 -2.4875 4.0625 -4.1875 4.0625 C-4.5175 2.7425 -4.8475 1.4225 -5.1875 0.0625 C-2.1875 -0.9375 -2.1875 -0.9375 0 0 Z " fill="#F7F7F7" transform="translate(266.1875,106.9375)"/>
<path d="M0 0 C0.12375 0.639375 0.2475 1.27875 0.375 1.9375 C0.684375 2.9584375 0.684375 2.9584375 1 4 C1.66 4.33 2.32 4.66 3 5 C0 7 0 7 -3 7 C-3 6.34 -3 5.68 -3 5 C-3.66 4.67 -4.32 4.34 -5 4 C-3.35 4 -1.7 4 0 4 C0 2.68 0 1.36 0 0 Z " fill="#EAEAEA" transform="translate(234,93)"/>
<path d="M0 0 C2.97 1.98 2.97 1.98 6 4 C5.01 4.66 4.02 5.32 3 6 C1.68 4.68 0.36 3.36 -1 2 C-0.67 1.34 -0.34 0.68 0 0 Z " fill="#E2E2E2" transform="translate(186,241)"/>
<path d="M0 0 C1.32 0 2.64 0 4 0 C4 3.51716303 3.17554415 4.37121748 1 7 C0.34 6.67 -0.32 6.34 -1 6 C-0.835 5.195625 -0.67 4.39125 -0.5 3.5625 C0.03191839 1.2715557 0.03191839 1.2715557 0 0 Z " fill="#191919" transform="translate(192,147)"/>
<path d="M0 0 C0.99 1.32 1.98 2.64 3 4 C1.02 4.99 1.02 4.99 -1 6 C-0.01 6.33 0.98 6.66 2 7 C0.68 7 -0.64 7 -2 7 C-2.33 6.01 -2.66 5.02 -3 4 C-1.5625 1.8125 -1.5625 1.8125 0 0 Z " fill="#2E2E2E" transform="translate(214,127)"/>
<path d="M0 0 C1.32 0.33 2.64 0.66 4 1 C2.35 2.32 0.7 3.64 -1 5 C-2.32 4.34 -3.64 3.68 -5 3 C-3.35 2.67 -1.7 2.34 0 2 C0 1.34 0 0.68 0 0 Z " fill="#E9E9E9" transform="translate(315,101)"/>
<path d="M0 0 C0.66 0 1.32 0 2 0 C2 0.99 2 1.98 2 3 C0.66666667 4.33333333 -0.66666667 5.66666667 -2 7 C-2.66 7 -3.32 7 -4 7 C-2.79618552 4.50638429 -1.54571278 2.31856917 0 0 Z " fill="#E0E0E0" transform="translate(114,47)"/>
<path d="M0 0 C0.99 0.33 1.98 0.66 3 1 C2.34 2.65 1.68 4.3 1 6 C0.01 6 -0.98 6 -2 6 C-1.125 1.125 -1.125 1.125 0 0 Z " fill="#E8E8E8" transform="translate(84,375)"/>
<path d="M0 0 C1.0625 1.8125 1.0625 1.8125 2 4 C1.67 4.99 1.34 5.98 1 7 C0.01 7 -0.98 7 -2 7 C-1.125 2.25 -1.125 2.25 0 0 Z " fill="#DFDFDF" transform="translate(60,312)"/>
<path d="M0 0 C3.465 1.485 3.465 1.485 7 3 C5.02 3.99 5.02 3.99 3 5 C1.68 4.01 0.36 3.02 -1 2 C-0.67 1.34 -0.34 0.68 0 0 Z " fill="#E3E3E3" transform="translate(30,256)"/>
<path d="M0 0 C2.125 0.9375 2.125 0.9375 4 2 C3.67 2.99 3.34 3.98 3 5 C2.01 5 1.02 5 0 5 C0 4.34 0 3.68 0 3 C-0.66 2.34 -1.32 1.68 -2 1 C-1.34 0.67 -0.68 0.34 0 0 Z " fill="#F1F1F1" transform="translate(176,234)"/>
<path d="M0 0 C0.33 1.32 0.66 2.64 1 4 C0.01 4.66 -0.98 5.32 -2 6 C-2.33 5.01 -2.66 4.02 -3 3 C-3.66 2.34 -4.32 1.68 -5 1 C-3 0 -3 0 0 0 Z " fill="#1F1F1F" transform="translate(206,199)"/>
<path d="M0 0 C1.65 0 3.3 0 5 0 C3.625 1.5 3.625 1.5 2 3 C1.34 3 0.68 3 0 3 C0 3.66 0 4.32 0 5 C-0.99 5.33 -1.98 5.66 -3 6 C-2 4 -1 2 0 0 Z " fill="#222222" transform="translate(119,188)"/>
<path d="M0 0 C-0.33 1.32 -0.66 2.64 -1 4 C-1.66 4 -2.32 4 -3 4 C-3 4.66 -3 5.32 -3 6 C-5 5 -5 5 -6 3 C-2.25 0 -2.25 0 0 0 Z " fill="#242424" transform="translate(210,133)"/>
</svg>
